<svg width="19" height="19" viewBox="0 0 19 19" fill="none" xmlns="http://www.w3.org/2000/svg">
<path fill-rule="evenodd" clip-rule="evenodd" d="M0.75 3.41162C0.75 2.03091 1.86929 0.911621 3.25 0.911621H4.39302C5.11 0.911621 5.73498 1.39959 5.90887 2.09516L6.83037 5.78115C6.98284 6.39104 6.75495 7.03291 6.25202 7.41011L5.174 8.21862C5.06206 8.30258 5.03772 8.42552 5.06917 8.51136C6.01542 11.0945 8.0671 13.1462 10.6503 14.0925C10.7361 14.1239 10.859 14.0996 10.943 13.9876L11.7515 12.9096C12.1287 12.4067 12.7706 12.1788 13.3805 12.3313L17.0665 13.2528C17.762 13.4266 18.25 14.0516 18.25 14.7686V15.9116C18.25 17.2923 17.1307 18.4116 15.75 18.4116H13.875C6.62626 18.4116 0.75 12.5354 0.75 5.28662V3.41162Z" fill="#FE0002"/>
</svg>
