<svg width="44" height="45" viewBox="0 0 44 45" fill="none" xmlns="http://www.w3.org/2000/svg">
<rect y="0.661621" width="44" height="44" rx="22" fill="#FE0002"/>
<g clip-path="url(#clip0_22_2121)">
<path d="M32 22.6616C32 17.1388 27.5229 12.6616 22 12.6616C16.4771 12.6616 12 17.1388 12 22.6616C12 27.6528 15.6568 31.7899 20.4375 32.5401V25.5522H17.8984V22.6616H20.4375V20.4585C20.4375 17.9522 21.9305 16.5679 24.2146 16.5679C25.3084 16.5679 26.4531 16.7632 26.4531 16.7632V19.2241H25.1922C23.95 19.2241 23.5625 19.995 23.5625 20.7866V22.6616H26.3359L25.8926 25.5522H23.5625V32.5401C28.3432 31.7899 32 27.6528 32 22.6616Z" fill="#262626"/>
</g>
<defs>
<clipPath id="clip0_22_2121">
<rect width="20" height="20" fill="white" transform="translate(12 12.6616)"/>
</clipPath>
</defs>
</svg>
