<svg width="57" height="56" viewBox="0 0 57 56" fill="none" xmlns="http://www.w3.org/2000/svg">
<rect x="0.333008" y="0.00805664" width="56" height="56" rx="28" fill="url(#paint0_linear_22_1854)" fill-opacity="0.1"/>
<rect x="0.833008" y="0.508057" width="55" height="55" rx="27.5" stroke="url(#paint1_linear_22_1854)" stroke-opacity="0.2"/>
<path d="M28.333 22.7581C26.8833 22.7581 25.708 23.9333 25.708 25.3831C25.708 26.8328 26.8833 28.0081 28.333 28.0081C29.7828 28.0081 30.958 26.8328 30.958 25.3831C30.958 23.9333 29.7828 22.7581 28.333 22.7581Z" fill="#FE0002"/>
<path fill-rule="evenodd" clip-rule="evenodd" d="M16.083 19.6956C16.083 18.4874 17.0624 17.5081 18.2705 17.5081H38.3955C39.6036 17.5081 40.583 18.4874 40.583 19.6956V31.0706C40.583 32.2787 39.6036 33.2581 38.3955 33.2581H18.2705C17.0624 33.2581 16.083 32.2787 16.083 31.0706V19.6956ZM23.958 25.3831C23.958 22.9668 25.9168 21.0081 28.333 21.0081C30.7493 21.0081 32.708 22.9668 32.708 25.3831C32.708 27.7993 30.7493 29.7581 28.333 29.7581C25.9168 29.7581 23.958 27.7993 23.958 25.3831ZM36.208 24.5081C35.7248 24.5081 35.333 24.8998 35.333 25.3831V25.3918C35.333 25.8751 35.7248 26.2668 36.208 26.2668H36.2168C36.7 26.2668 37.0918 25.8751 37.0918 25.3918V25.3831C37.0918 24.8998 36.7 24.5081 36.2168 24.5081H36.208ZM19.583 25.3831C19.583 24.8998 19.9748 24.5081 20.458 24.5081H20.4668C20.95 24.5081 21.3418 24.8998 21.3418 25.3831V25.3918C21.3418 25.8751 20.95 26.2668 20.4668 26.2668H20.458C19.9748 26.2668 19.583 25.8751 19.583 25.3918V25.3831Z" fill="#FE0002"/>
<path d="M16.958 35.0081C16.4748 35.0081 16.083 35.3998 16.083 35.8831C16.083 36.3663 16.4748 36.7581 16.958 36.7581C23.2581 36.7581 29.3599 37.6006 35.1577 39.1788C36.5468 39.5568 37.958 38.5276 37.958 37.0557V35.8831C37.958 35.3998 37.5663 35.0081 37.083 35.0081H16.958Z" fill="#FE0002"/>
<defs>
<linearGradient id="paint0_linear_22_1854" x1="28.333" y1="-37.073" x2="28.333" y2="144.549" gradientUnits="userSpaceOnUse">
<stop stop-color="#CAFF33"/>
<stop offset="0.467671" stop-color="#CAFF33" stop-opacity="0"/>
</linearGradient>
<linearGradient id="paint1_linear_22_1854" x1="28.333" y1="-97.2352" x2="28.333" y2="106.711" gradientUnits="userSpaceOnUse">
<stop stop-color="#CAFF33"/>
<stop offset="0.716291" stop-color="#CAFF33" stop-opacity="0"/>
</linearGradient>
</defs>
</svg>
