<svg width="57" height="56" viewBox="0 0 57 56" fill="none" xmlns="http://www.w3.org/2000/svg">
<rect x="0.666504" y="0.00805664" width="56" height="56" rx="28" fill="url(#paint0_linear_22_1833)" fill-opacity="0.1"/>
<rect x="1.1665" y="0.508057" width="55" height="55" rx="27.5" stroke="url(#paint1_linear_22_1833)" stroke-opacity="0.2"/>
<path d="M26.9196 31.4516C26.1334 31.4516 25.6729 31.009 25.6729 30.2148V29.2958C22.371 29.0689 19.0803 28.3881 15.666 27.0833V25.2112C19.8664 27.072 24.0781 27.73 28.6604 27.73C33.254 27.73 37.4656 27.072 41.666 25.2112V27.0833C38.2518 28.3881 34.961 29.0689 31.6591 29.2958V30.2148C31.6591 31.009 31.1986 31.4516 30.4124 31.4516H26.9196ZM19.1364 38.9966H38.1956C40.5205 38.9966 41.666 37.8621 41.666 35.5361V24.4964C41.666 22.1705 40.5205 21.0359 38.1956 21.0359H19.1364C16.8228 21.0359 15.666 22.1705 15.666 24.4964V35.5361C15.666 37.8621 16.8228 38.9966 19.1364 38.9966ZM22.9662 22.023H24.7071V20.0148C24.7071 19.1525 25.2125 18.6646 26.0885 18.6646H31.2436C32.1196 18.6646 32.6138 19.1525 32.6138 20.0148V22.0003H34.3546V20.1396C34.3546 18.0065 33.2427 17.0081 31.2099 17.0081H26.1109C24.1904 17.0081 22.9662 18.0065 22.9662 20.1396V22.023Z" fill="#FE0002"/>
<defs>
<linearGradient id="paint0_linear_22_1833" x1="28.6665" y1="-37.073" x2="28.6665" y2="144.549" gradientUnits="userSpaceOnUse">
<stop stop-color="#CAFF33"/>
<stop offset="0.467671" stop-color="#CAFF33" stop-opacity="0"/>
</linearGradient>
<linearGradient id="paint1_linear_22_1833" x1="28.6665" y1="-97.2352" x2="28.6665" y2="106.711" gradientUnits="userSpaceOnUse">
<stop stop-color="#CAFF33"/>
<stop offset="0.716291" stop-color="#CAFF33" stop-opacity="0"/>
</linearGradient>
</defs>
</svg>
