<svg width="44" height="45" viewBox="0 0 44 45" fill="none" xmlns="http://www.w3.org/2000/svg">
<rect y="0.661621" width="44" height="44" rx="22" fill="#FE0002"/>
<g clip-path="url(#clip0_22_2127)">
<path d="M30.5195 12.6616H13.4766C12.6602 12.6616 12 13.3062 12 14.103V31.2163C12 32.0132 12.6602 32.6616 13.4766 32.6616H30.5195C31.3359 32.6616 32 32.0132 32 31.2202V14.103C32 13.3062 31.3359 12.6616 30.5195 12.6616ZM17.9336 29.7046H14.9648V20.1577H17.9336V29.7046ZM16.4492 18.8569C15.4961 18.8569 14.7266 18.0874 14.7266 17.1382C14.7266 16.189 15.4961 15.4194 16.4492 15.4194C17.3984 15.4194 18.168 16.189 18.168 17.1382C18.168 18.0835 17.3984 18.8569 16.4492 18.8569ZM29.043 29.7046H26.0781V25.064C26.0781 23.9585 26.0586 22.5327 24.5352 22.5327C22.9922 22.5327 22.7578 23.7397 22.7578 24.9858V29.7046H19.7969V20.1577H22.6406V21.4624H22.6797C23.0742 20.7124 24.043 19.9194 25.4844 19.9194C28.4883 19.9194 29.043 21.896 29.043 24.4663V29.7046Z" fill="#262626"/>
</g>
<defs>
<clipPath id="clip0_22_2127">
<rect width="20" height="20" fill="white" transform="translate(12 12.6616)"/>
</clipPath>
</defs>
</svg>
