<svg width="21" height="21" viewBox="0 0 21 21" fill="none" xmlns="http://www.w3.org/2000/svg">
<path fill-rule="evenodd" clip-rule="evenodd" d="M10.1165 19.2875C10.1416 19.3021 10.1614 19.3133 10.1754 19.3212L10.1987 19.3342C10.3844 19.4362 10.6148 19.4354 10.8007 19.3345L10.8246 19.3212C10.8386 19.3133 10.8584 19.3021 10.8835 19.2875C10.9339 19.2583 11.0058 19.2158 11.0963 19.1601C11.2771 19.0488 11.5323 18.8846 11.8372 18.6692C12.4459 18.2392 13.2581 17.6012 14.0721 16.7677C15.6922 15.109 17.375 12.6168 17.375 9.41162C17.375 5.61466 14.297 2.53662 10.5 2.53662C6.70304 2.53662 3.625 5.61466 3.625 9.41162C3.625 12.6168 5.30777 15.109 6.92788 16.7677C7.74188 17.6012 8.55409 18.2392 9.16282 18.6692C9.46771 18.8846 9.72295 19.0488 9.90375 19.1601C9.99419 19.2158 10.0661 19.2583 10.1165 19.2875ZM10.5 11.9116C11.8807 11.9116 13 10.7923 13 9.41162C13 8.03091 11.8807 6.91162 10.5 6.91162C9.11929 6.91162 8 8.03091 8 9.41162C8 10.7923 9.11929 11.9116 10.5 11.9116Z" fill="#FE0002"/>
</svg>
