<svg width="150" height="40" viewBox="0 0 150 40" fill="none" xmlns="http://www.w3.org/2000/svg">
<path fill-rule="evenodd" clip-rule="evenodd" d="M12.294 1.46348C12.1349 1.56887 11.9407 1.70169 11.8624 1.75866C11.7587 1.83413 11.4858 1.87668 10.8561 1.91554C10.3808 1.94482 9.87425 2.00019 9.73045 2.0386C9.41473 2.12281 8.83606 2.44102 8.40641 2.76657C8.23294 2.89806 7.98673 3.06156 7.85928 3.12989C7.7319 3.19822 7.55521 3.30756 7.4667 3.37289C7.33468 3.4703 6.60733 3.93008 5.8736 4.37984C5.79391 4.42871 5.72877 4.49761 5.72877 4.53295C5.72877 4.60383 5.73077 4.60459 6.25981 4.75018C6.54759 4.82941 6.62992 4.87955 6.62992 4.97563C6.62992 5.14258 6.47988 5.20772 6.00098 5.24868C5.05001 5.33002 4.34699 5.82418 4.00313 6.65295C3.72243 7.32957 3.70794 7.39464 3.82786 7.44026C3.88476 7.46188 3.98524 7.4312 4.05122 7.37199C4.23177 7.21008 4.26756 7.34705 4.14964 7.74903C4.03879 8.12689 3.97224 8.17844 3.86114 7.9727C3.7716 7.80689 3.71889 7.84313 3.37394 8.30756L3.08969 8.69027V9.61359C3.08969 10.3238 3.07109 10.5309 3.00923 10.5107C2.96334 10.4957 2.92021 10.3496 2.90882 10.1705C2.89787 9.99777 2.86479 9.83235 2.83544 9.80287C2.75208 9.7193 2.36188 10.3285 2.36774 10.5331C2.37482 10.7804 2.55299 11.4501 2.68617 11.7301C2.8252 12.0225 3.31684 12.5155 3.58783 12.6345C3.8081 12.731 3.8941 12.8894 3.95222 13.3052C3.97211 13.4476 4.03963 13.6629 4.10226 13.7837C4.25217 14.0727 4.30766 15.3621 4.17377 15.4462C4.12627 15.476 3.83707 15.5009 3.53106 15.5014C3.14505 15.5021 2.96527 15.5269 2.94377 15.5825C2.87251 15.7663 3.35991 17.2309 3.80739 18.1777C4.19836 19.005 4.56333 19.3989 5.08355 19.5552C5.36258 19.639 5.65198 19.8643 5.75458 20.0775C5.90083 20.3814 6.09367 21.1748 6.27326 22.2111C6.36048 22.7143 6.52288 23.4131 6.63404 23.764C6.82747 24.3742 7.1 25.2233 7.29941 25.8373C7.80058 27.38 7.95802 27.9572 8.08257 28.7081C8.25759 29.7636 8.2928 29.6791 7.36191 30.4379C6.55422 31.0962 6.4372 31.1947 5.69659 31.8391C5.04255 32.4082 5.082 32.4573 5.96442 32.1725C6.25755 32.0779 6.51676 32.0197 6.54051 32.0432C6.5642 32.0667 6.39131 32.3987 6.15617 32.7811C5.9211 33.1633 5.72877 33.5055 5.72877 33.5414C5.72877 33.7197 5.9677 33.688 6.86654 33.3905C7.1206 33.3064 7.40446 33.2376 7.49734 33.2376C7.86804 33.2376 8.17732 33.509 8.76944 34.3541C9.18416 34.9458 9.62212 35.396 9.83447 35.4489C9.91622 35.4692 9.99681 35.4722 10.0136 35.4555C10.0464 35.4231 9.62914 34.4831 9.36478 33.9938C9.10338 33.5099 9.19131 33.4142 9.58839 33.7506C9.83692 33.9612 9.94538 33.9856 10.0003 33.8437C10.0579 33.695 10.1706 33.7264 10.6574 34.0266C11.1045 34.3024 11.3931 34.4313 11.3931 34.3552C11.3931 34.3335 11.3481 34.2294 11.2929 34.1238C11.1102 33.7735 10.7386 33.4304 10.3354 33.2397C9.90817 33.0376 9.68108 32.8406 9.74925 32.7313C9.77261 32.6938 9.9941 32.6635 10.2446 32.6635H10.6977L10.6527 32.279C10.6214 32.0112 10.6316 31.8662 10.6864 31.8006C10.8084 31.6551 11.1427 31.6886 11.5936 31.8916C11.8196 31.9934 12.0281 32.0625 12.0569 32.0449C12.0856 32.0274 12.1365 31.9416 12.1701 31.8543C12.2261 31.7083 12.253 31.6991 12.504 31.7405C12.6542 31.7652 12.8495 31.822 12.938 31.8668C13.5523 32.1774 14.9213 32.4709 15.7594 32.4717C16.2226 32.4722 16.2537 32.4026 15.8939 32.1705C14.8189 31.4769 14.3128 31.0263 14.0936 30.5676C13.8676 30.0945 13.9034 30.0658 14.9012 29.9208C15.6436 29.813 16.0386 29.7108 16.0749 29.6173C16.1543 29.4122 15.9818 29.3955 15.1809 29.5307C14.0184 29.7271 12.5677 29.9203 12.2557 29.9203C12.1062 29.9203 11.8003 29.8623 11.5759 29.7915C11.3515 29.7206 10.9876 29.6448 10.7672 29.6229C10.5192 29.5983 10.3334 29.5441 10.2793 29.4806C10.2057 29.3941 9.95388 28.6549 9.49075 27.165C9.35525 26.7294 9.36736 26.6943 9.70348 26.5444C10.2615 26.2955 10.3311 26.2406 10.3311 26.0487V25.8692L9.78394 25.8373L9.23682 25.8054V25.5821V25.3589L9.62302 25.3139C10.4329 25.2197 12.6883 25.0077 13.6138 24.9389C14.1449 24.8995 14.6011 24.8542 14.6276 24.8382C14.7137 24.7863 14.6807 24.1982 14.5875 24.1215C14.4591 24.016 14.2897 24.1046 14.2897 24.2774C14.2897 24.3593 14.2587 24.4452 14.2209 24.4685C14.0961 24.5448 10.4072 24.8166 9.49487 24.8166C9.1487 24.8166 9.14419 24.8141 8.97465 24.5273C8.81135 24.2512 8.80549 24.21 8.84411 23.6182C8.92682 22.3505 8.96628 22.5191 8.53495 22.298C7.99394 22.0207 7.90035 21.8706 7.86623 21.226C7.83173 20.5745 7.99497 19.48 8.21981 18.8551C8.57389 17.8709 8.88447 17.4797 9.3111 17.4803C9.64832 17.4808 9.86241 17.6877 10.3311 18.4663C10.8329 19.3 11.1815 19.7309 11.476 19.8819C11.6153 19.9532 11.8455 19.9819 12.2611 19.9797C13.6482 19.9722 14.7556 19.4553 15.2783 18.5714C15.5652 18.0861 15.6343 17.8577 15.6614 17.3048C15.6738 17.0505 15.6961 16.8313 15.7109 16.8175C15.7361 16.7943 16.1201 16.579 17.315 15.918C17.5805 15.771 17.8947 15.5959 18.0132 15.5288C18.2243 15.4091 18.23 15.4091 18.3028 15.5274C18.4729 15.8039 19.0591 16.7 19.215 16.9219C19.3074 17.0535 19.4215 17.1611 19.4686 17.1611C19.6054 17.1611 19.6219 17.2914 19.5617 17.898C19.4365 19.1587 19.4049 19.7811 19.4633 19.8389C19.5429 19.9179 19.7153 19.8246 20.1264 19.4799C20.5059 19.1619 20.5699 19.0088 20.6295 18.2775C20.7169 17.2057 20.8516 17.0519 21.635 17.13C22.0311 17.1694 22.0812 17.1616 22.1146 17.0559C22.2513 16.6226 22.4862 16.0743 22.5614 16.0124C22.6106 15.9719 22.7464 15.9261 22.8634 15.9104C22.9802 15.8947 23.2723 15.8512 23.5123 15.8137C23.7523 15.7761 23.9875 15.7601 24.0348 15.7781C24.0821 15.7961 24.1723 15.9996 24.2353 16.2302C24.6292 17.6725 23.626 19.6359 21.6224 21.3437C21.4963 21.4511 21.3761 21.5833 21.3551 21.6374C21.3342 21.6915 21.342 21.9625 21.3725 22.2395C21.588 24.1993 21.9049 27.8452 21.9027 28.3406C21.9014 28.6322 21.6111 29.1281 21.1127 29.6901C19.9545 30.9962 19.6768 31.3418 19.4649 31.7413C19.3354 31.9853 19.209 32.2137 19.184 32.2488C19.159 32.2839 19.0579 32.5423 18.9594 32.823C18.7257 33.4893 18.4294 34.067 18.3216 34.067C18.2744 34.067 18.0264 33.85 17.7704 33.5848C17.3917 33.1925 17.2879 33.1167 17.2134 33.178C17.0831 33.2852 17.1001 33.5554 17.2598 33.9132C17.3447 34.1035 17.3978 34.3534 17.3978 34.5633C17.3978 34.8672 17.3729 34.9297 17.169 35.1395C16.9135 35.4024 16.7643 35.8084 16.8865 35.9085C16.9274 35.9421 17.0476 35.9793 17.1535 35.9912C17.261 36.0032 17.354 36.0551 17.364 36.1085C17.3866 36.2288 16.9292 37.0021 16.8365 37.0002C16.7987 36.9994 16.623 36.8687 16.446 36.7097C16.269 36.5508 15.8873 36.2069 15.5978 35.9456C15.3084 35.6843 15.0419 35.4705 15.0057 35.4705C14.8834 35.4705 14.8245 35.6724 14.855 35.9871C14.8917 36.3651 14.8177 36.3855 14.5889 36.0606C14.4962 35.9291 14.2453 35.6061 14.0314 35.3429C13.8176 35.0798 13.5403 34.7294 13.4153 34.5645C13.1652 34.2347 13.0079 34.153 12.8174 34.254C12.718 34.3067 12.6874 34.4031 12.6701 34.718C12.6468 35.1423 12.7017 35.2334 13.1586 35.5286C13.2449 35.5844 13.6578 35.8909 14.0762 36.2098C14.4945 36.5287 14.9961 36.8991 15.1908 37.033C15.3856 37.1668 15.568 37.315 15.5964 37.3623C15.6726 37.4894 15.8345 37.4664 15.8345 37.3284C15.8345 37.2625 15.8712 37.1784 15.9161 37.1415C16.0224 37.054 16.1776 37.1774 16.566 37.658C17.0175 38.2167 16.9454 38.3835 16.4074 38.025C16.1705 37.8671 16.11 37.8501 16.0375 37.9217C15.965 37.9933 15.9859 38.0537 16.1663 38.2928C16.6138 38.8863 17.1378 39.4997 17.2258 39.5332C17.3757 39.5902 17.6977 39.4219 17.8718 39.1956C18.1819 38.7927 18.1164 38.1238 17.7318 37.7656C17.5398 37.5869 17.5336 37.4548 17.6972 37.0347C17.7658 36.8586 17.8988 36.4561 17.9928 36.1404C18.0867 35.8246 18.201 35.4801 18.2468 35.3748C18.2925 35.2695 18.3849 34.9825 18.4521 34.7368L18.5744 34.2903L18.9713 34.2714C19.3765 34.2521 19.6606 34.3478 20.0927 34.6495C20.3179 34.8066 20.5334 34.8063 20.5334 34.6487C20.5334 34.5828 20.4583 34.3316 20.3664 34.0905C20.2167 33.6977 20.2019 33.583 20.2241 32.9825C20.2476 32.3461 20.2625 32.2851 20.5223 31.7631C20.7064 31.3932 20.9828 30.9971 21.368 30.551C22.3226 29.4459 22.5266 29.0029 22.528 28.0325C22.5289 27.448 22.3464 26.6426 22.1369 26.3067C21.9276 25.9711 21.9519 25.9245 22.8972 24.8487C23.2229 24.4781 23.2693 24.3612 23.4544 23.445C23.671 22.3738 23.8962 21.5219 23.9864 21.4325C24.0386 21.3807 24.1295 21.3831 24.3252 21.4412C24.7174 21.5576 24.7441 21.4979 24.6155 20.7907C24.5557 20.4611 24.5033 20.134 24.4993 20.0638C24.4878 19.8633 24.6659 19.9145 24.7437 20.1341C24.7823 20.2429 24.8619 20.4008 24.9205 20.485C25.0091 20.6121 25.0472 20.6256 25.1458 20.5652C25.2999 20.4706 25.2823 20.1512 25.0899 19.5534C24.8913 18.9363 24.8936 18.1355 25.0952 17.7483C25.2873 17.3793 25.6543 16.9867 25.944 16.8402C26.2013 16.7101 26.2621 16.6126 26.2621 16.3303C26.2621 16.0952 26.1836 16.0525 25.7307 16.041C25.5259 16.0358 25.3409 16.0142 25.3195 15.9929C25.2981 15.9717 25.3856 15.8095 25.514 15.6324C25.8375 15.1861 25.8343 15.1569 25.4575 15.1196C25.1045 15.0847 25.0998 15.075 25.1978 14.5933C25.2374 14.3989 25.2278 14.3541 25.1466 14.3541C24.9843 14.3541 24.9534 14.2281 25.0811 14.0871C25.1465 14.0149 25.3666 13.8284 25.5702 13.6727C25.7737 13.5171 25.9403 13.3482 25.9403 13.2975C25.9403 13.2417 25.8224 13.174 25.6419 13.1262C25.2947 13.0341 25.12 12.8361 24.924 12.3126C24.8518 12.1196 24.7329 11.8325 24.6599 11.6746C24.5398 11.4151 24.5268 11.2623 24.5242 10.0797C24.5208 8.52332 24.5197 8.51975 23.7882 7.72396C23.2435 7.13142 23.0668 6.81423 22.8168 5.98003C22.532 5.02992 22.2117 4.47994 21.5734 3.84504C21.264 3.53729 20.9312 3.2201 20.8339 3.14016C20.4428 2.81895 19.397 2.06609 19.246 1.99713C19.1575 1.95668 18.781 1.78501 18.4092 1.61569L17.7334 1.30782L15.1584 1.28983L12.5834 1.27184L12.294 1.46348ZM12.6161 8.19235C12.2798 8.23898 11.432 8.39528 10.7322 8.53965C8.93834 8.90973 8.11733 9.24919 7.46516 9.89066C7.41038 9.9445 7.25075 10.072 7.11036 10.174C6.68901 10.4803 6.69429 10.4636 6.69429 11.4997C6.69429 12.518 6.6818 12.5687 6.33029 12.978L6.11498 13.2287V14.2232C6.11498 15.1727 6.12206 15.2279 6.27229 15.447C6.41673 15.6577 6.46276 15.6801 6.83551 15.7213C7.26465 15.7687 8.17372 16.0026 8.57499 16.1688C8.71428 16.2265 9.00303 16.2679 9.26604 16.2679C9.64594 16.2679 9.82804 16.2248 10.4106 15.9968L11.1035 15.7257H14.0322H16.961L17.3443 15.5343C17.8974 15.2581 17.993 15.0993 17.9817 14.4748C17.9743 14.0622 17.9339 13.8746 17.7654 13.47L17.5581 12.9724L17.7704 12.4989C17.9588 12.0788 17.9843 11.9539 17.997 11.3883C18.0049 11.0306 17.9811 10.6949 17.9425 10.6228C17.9048 10.5522 17.6615 10.2458 17.4019 9.94195C17.0114 9.48498 16.9176 9.33066 16.8585 9.0488C16.7623 8.58916 16.6492 8.43241 16.3045 8.28134C16.0488 8.16919 15.8422 8.15069 14.6203 8.13053C13.6892 8.11515 13.0249 8.13563 12.6161 8.19235ZM12.5518 21.3317C12.5518 21.4708 12.8746 22.0217 13.0892 22.2488C13.3239 22.4973 13.55 22.534 13.4817 22.3126C13.3737 21.9622 13.2565 21.7682 12.9998 21.5152C12.7217 21.241 12.5518 21.1714 12.5518 21.3317ZM10.6964 21.8914C10.5079 22.0003 10.3775 22.1108 10.4068 22.137C10.4359 22.1631 10.6553 22.2015 10.8943 22.2223C11.2559 22.2537 11.3288 22.2438 11.3288 22.1635C11.3288 22.0413 11.1477 21.6901 11.0857 21.692C11.0601 21.6928 10.8849 21.7825 10.6964 21.8914ZM11.9443 34.6986C11.9031 34.7647 12.419 35.0492 12.4765 34.9922C12.5232 34.9459 12.163 34.6466 12.0567 34.6435C12.0145 34.6422 11.964 34.667 11.9443 34.6986Z" fill="#FE0002"/>
<path d="M39.7522 28.5V11.0455H46.6386C47.9624 11.0455 49.0903 11.2983 50.0221 11.804C50.9539 12.304 51.6641 13 52.1528 13.892C52.6471 14.7784 52.8942 15.8011 52.8942 16.9602C52.8942 18.1193 52.6442 19.142 52.1442 20.0284C51.6442 20.9148 50.9198 21.6051 49.971 22.0994C49.0278 22.5937 47.8857 22.8409 46.5448 22.8409H42.1556V19.8835H45.9482C46.6585 19.8835 47.2437 19.7614 47.7039 19.517C48.1698 19.267 48.5164 18.9233 48.7437 18.4858C48.9766 18.0426 49.0931 17.5341 49.0931 16.9602C49.0931 16.3807 48.9766 15.875 48.7437 15.4432C48.5164 15.0057 48.1698 14.6676 47.7039 14.429C47.238 14.1847 46.6471 14.0625 45.9312 14.0625H43.4425V28.5H39.7522ZM55.6413 11.0455H60.1924L64.9992 22.7727H65.2038L70.0106 11.0455H74.5617V28.5H70.9822V17.1392H70.8373L66.3202 28.4148H63.8827L59.3657 17.0966H59.2208V28.5H55.6413V11.0455ZM81.6425 11.0455V28.5H77.9522V11.0455H81.6425ZM85.0288 28.5V11.0455H88.7191V18.7415H88.9492L95.2305 11.0455H99.6538L93.1765 18.8608L99.7305 28.5H95.3157L90.5344 21.3239L88.7191 23.5398V28.5H85.0288ZM108.335 28.7386C107.022 28.7386 105.855 28.5256 104.832 28.0994C103.815 27.6676 103.017 27.0795 102.437 26.3352C101.857 25.5909 101.568 24.7472 101.568 23.804C101.568 23.0767 101.732 22.4091 102.062 21.8011C102.397 21.1875 102.852 20.679 103.426 20.2756C104 19.8665 104.642 19.6051 105.352 19.4915V19.3722C104.42 19.1847 103.664 18.733 103.085 18.017C102.505 17.2955 102.215 16.4574 102.215 15.5028C102.215 14.5994 102.48 13.7955 103.008 13.0909C103.536 12.3807 104.261 11.8239 105.181 11.4205C106.107 11.0114 107.159 10.8068 108.335 10.8068C109.511 10.8068 110.559 11.0114 111.48 11.4205C112.406 11.8295 113.133 12.3892 113.661 13.0994C114.19 13.804 114.457 14.6051 114.463 15.5028C114.457 16.4631 114.161 17.3011 113.576 18.017C112.991 18.733 112.241 19.1847 111.326 19.3722V19.4915C112.025 19.6051 112.659 19.8665 113.227 20.2756C113.801 20.679 114.255 21.1875 114.59 21.8011C114.931 22.4091 115.105 23.0767 115.11 23.804C115.105 24.7472 114.812 25.5909 114.232 26.3352C113.653 27.0795 112.852 27.6676 111.829 28.0994C110.812 28.5256 109.647 28.7386 108.335 28.7386ZM108.335 26.0284C108.92 26.0284 109.431 25.9233 109.869 25.7131C110.306 25.4972 110.647 25.2017 110.892 24.8267C111.142 24.446 111.267 24.0085 111.267 23.5142C111.267 23.0085 111.139 22.5625 110.883 22.1761C110.627 21.7841 110.281 21.4773 109.843 21.2557C109.406 21.0284 108.903 20.9148 108.335 20.9148C107.772 20.9148 107.269 21.0284 106.826 21.2557C106.383 21.4773 106.034 21.7841 105.778 22.1761C105.528 22.5625 105.403 23.0085 105.403 23.5142C105.403 24.0085 105.525 24.446 105.769 24.8267C106.014 25.2017 106.357 25.4972 106.801 25.7131C107.244 25.9233 107.755 26.0284 108.335 26.0284ZM108.335 18.2301C108.823 18.2301 109.258 18.1307 109.639 17.9318C110.019 17.733 110.318 17.4574 110.534 17.1051C110.75 16.7528 110.857 16.3466 110.857 15.8864C110.857 15.4318 110.75 15.0341 110.534 14.6932C110.318 14.3466 110.022 14.0767 109.647 13.8835C109.272 13.6847 108.835 13.5852 108.335 13.5852C107.84 13.5852 107.403 13.6847 107.022 13.8835C106.642 14.0767 106.343 14.3466 106.127 14.6932C105.917 15.0341 105.812 15.4318 105.812 15.8864C105.812 16.3466 105.92 16.7528 106.136 17.1051C106.352 17.4574 106.65 17.733 107.031 17.9318C107.411 18.1307 107.846 18.2301 108.335 18.2301ZM124.884 28.8835C123.418 28.8778 122.157 28.517 121.1 27.8011C120.049 27.0852 119.239 26.0483 118.671 24.6903C118.109 23.3324 117.83 21.6989 117.836 19.7898C117.836 17.8864 118.117 16.2642 118.68 14.9233C119.248 13.5824 120.058 12.5625 121.109 11.8636C122.166 11.1591 123.424 10.8068 124.884 10.8068C126.345 10.8068 127.6 11.1591 128.651 11.8636C129.708 12.5682 130.521 13.5909 131.089 14.9318C131.657 16.267 131.938 17.8864 131.933 19.7898C131.933 21.7045 131.649 23.3409 131.08 24.6989C130.518 26.0568 129.711 27.0937 128.66 27.8097C127.609 28.5256 126.35 28.8835 124.884 28.8835ZM124.884 25.8239C125.884 25.8239 126.683 25.321 127.279 24.3153C127.876 23.3097 128.171 21.8011 128.166 19.7898C128.166 18.4659 128.029 17.3636 127.756 16.483C127.489 15.6023 127.109 14.9403 126.614 14.4972C126.126 14.054 125.549 13.8324 124.884 13.8324C123.89 13.8324 123.095 14.3295 122.498 15.3239C121.901 16.3182 121.6 17.8068 121.595 19.7898C121.595 21.1307 121.728 22.25 121.995 23.1477C122.268 24.0398 122.651 24.7102 123.146 25.1591C123.64 25.6023 124.22 25.8239 124.884 25.8239ZM134.65 25.4318V22.5256L141.937 11.0455H144.442V15.0682H142.959L138.366 22.3381V22.4744H148.721V25.4318H134.65ZM143.028 28.5V24.5455L143.096 23.2585V11.0455H146.556V28.5H143.028Z" fill="#FE0002"/>
</svg>
