<svg width="44" height="45" viewBox="0 0 44 45" fill="none" xmlns="http://www.w3.org/2000/svg">
<rect y="0.661621" width="44" height="44" rx="22" fill="#FE0002"/>
<path d="M18.2918 30.7862C25.8371 30.7862 29.9652 24.5335 29.9652 19.1128C29.9652 18.937 29.9613 18.7573 29.9535 18.5816C30.7566 18.0008 31.4496 17.2815 32 16.4573C31.2521 16.7901 30.458 17.0074 29.6449 17.1019C30.5011 16.5887 31.1421 15.7825 31.4492 14.8327C30.6438 15.3101 29.763 15.6468 28.8445 15.8284C28.2257 15.1709 27.4075 14.7355 26.5164 14.5896C25.6253 14.4437 24.711 14.5955 23.9148 15.0213C23.1186 15.4472 22.4848 16.1235 22.1115 16.9457C21.7382 17.7679 21.6462 18.6901 21.8496 19.5698C20.2187 19.488 18.6233 19.0643 17.1667 18.3263C15.71 17.5883 14.4247 16.5525 13.3941 15.2859C12.8703 16.189 12.71 17.2576 12.9459 18.2747C13.1817 19.2917 13.7959 20.1808 14.6637 20.7612C14.0122 20.7406 13.375 20.5652 12.8047 20.2495V20.3003C12.8041 21.248 13.1317 22.1667 13.7319 22.9002C14.3321 23.6337 15.1678 24.1367 16.0969 24.3237C15.4934 24.4889 14.86 24.5129 14.2457 24.3941C14.5079 25.2091 15.018 25.922 15.7048 26.4332C16.3916 26.9444 17.2209 27.2284 18.077 27.2456C16.6237 28.3872 14.8285 29.0064 12.9805 29.0034C12.6527 29.0029 12.3253 28.9828 12 28.9433C13.8774 30.1477 16.0613 30.7874 18.2918 30.7862Z" fill="#262626"/>
</svg>
